<svg width="21" height="20" viewBox="0 0 21 20" fill="none" xmlns="http://www.w3.org/2000/svg">
<path d="M10.0402 0C4.51807 0 0 4.50803 0 10.0602C0 15.0803 3.6747 19.247 8.4739 20V12.9719H5.9237V10.0602H8.4739V7.84137C8.4739 5.32129 9.96988 3.93574 12.2691 3.93574C13.3635 3.93574 14.508 4.12651 14.508 4.12651V6.60643H13.243C11.998 6.60643 11.6064 7.37952 11.6064 8.17269V10.0602H14.3976L13.9458 12.9719H11.6064V20C13.9723 19.6264 16.1267 18.4192 17.6807 16.5964C19.2346 14.7737 20.0857 12.4555 20.0803 10.0602C20.0803 4.50803 15.5623 0 10.0402 0Z" fill="#FF5633"/>
</svg>
