<svg width="21" height="20" viewBox="0 0 21 20" fill="none" xmlns="http://www.w3.org/2000/svg">
<path d="M11.509 0C12.634 0.003 13.205 0.009 13.698 0.023L13.892 0.03C14.116 0.038 14.337 0.0479999 14.604 0.0599999C15.668 0.11 16.394 0.278 17.031 0.525C17.691 0.779 18.247 1.123 18.803 1.678C19.3117 2.17773 19.7052 2.78247 19.956 3.45C20.203 4.087 20.371 4.813 20.421 5.878C20.433 6.144 20.443 6.365 20.451 6.59L20.457 6.784C20.472 7.276 20.478 7.847 20.48 8.972L20.481 9.718V11.028C20.4835 11.7574 20.4758 12.4868 20.458 13.216L20.452 13.41C20.444 13.635 20.434 13.856 20.422 14.122C20.372 15.187 20.202 15.912 19.956 16.55C19.7052 17.2175 19.3117 17.8223 18.803 18.322C18.3033 18.8307 17.6986 19.2242 17.031 19.475C16.394 19.722 15.668 19.89 14.604 19.94L13.892 19.97L13.698 19.976C13.205 19.99 12.634 19.997 11.509 19.999L10.763 20H9.45404C8.7243 20.0026 7.99456 19.9949 7.26504 19.977L7.07104 19.971C6.83365 19.962 6.59631 19.9517 6.35904 19.94C5.29504 19.89 4.56904 19.722 3.93104 19.475C3.26387 19.2241 2.65948 18.8306 2.16004 18.322C1.65098 17.8224 1.25715 17.2176 1.00604 16.55C0.759038 15.913 0.591037 15.187 0.541037 14.122L0.511038 13.41L0.506038 13.216C0.487604 12.4868 0.479269 11.7574 0.481038 11.028V8.972C0.47827 8.2426 0.485604 7.5132 0.503038 6.784L0.510038 6.59C0.518038 6.365 0.528038 6.144 0.540038 5.878C0.590038 4.813 0.758038 4.088 1.00504 3.45C1.25673 2.7822 1.65126 2.17744 2.16104 1.678C2.66019 1.16955 3.26423 0.776074 3.93104 0.525C4.56904 0.278 5.29404 0.11 6.35904 0.0599999C6.62504 0.0479999 6.84704 0.038 7.07104 0.03L7.26504 0.0239999C7.99423 0.00623271 8.72363 -0.0014347 9.45304 0.000999928L11.509 0ZM10.481 5C9.15495 5 7.88319 5.52678 6.9455 6.46447C6.00782 7.40215 5.48104 8.67392 5.48104 10C5.48104 11.3261 6.00782 12.5979 6.9455 13.5355C7.88319 14.4732 9.15495 15 10.481 15C11.8071 15 13.0789 14.4732 14.0166 13.5355C14.9543 12.5979 15.481 11.3261 15.481 10C15.481 8.67392 14.9543 7.40215 14.0166 6.46447C13.0789 5.52678 11.8071 5 10.481 5ZM10.481 7C10.875 6.99993 11.2651 7.07747 11.6291 7.22817C11.9931 7.37887 12.3239 7.5998 12.6025 7.87833C12.8811 8.15686 13.1022 8.48754 13.253 8.85149C13.4038 9.21544 13.4815 9.60553 13.4815 9.9995C13.4816 10.3935 13.4041 10.7836 13.2534 11.1476C13.1027 11.5116 12.8817 11.8423 12.6032 12.121C12.3247 12.3996 11.994 12.6206 11.63 12.7714C11.2661 12.9223 10.876 12.9999 10.482 13C9.68639 13 8.92333 12.6839 8.36072 12.1213C7.79811 11.5587 7.48204 10.7956 7.48204 10C7.48204 9.20435 7.79811 8.44129 8.36072 7.87868C8.92333 7.31607 9.68639 7 10.482 7M15.732 3.5C15.4005 3.5 15.0826 3.6317 14.8482 3.86612C14.6137 4.10054 14.482 4.41848 14.482 4.75C14.482 5.08152 14.6137 5.39946 14.8482 5.63388C15.0826 5.8683 15.4005 6 15.732 6C16.0636 6 16.3815 5.8683 16.6159 5.63388C16.8503 5.39946 16.982 5.08152 16.982 4.75C16.982 4.41848 16.8503 4.10054 16.6159 3.86612C16.3815 3.6317 16.0636 3.5 15.732 3.5Z" fill="#FF5633"/>
</svg>
