<svg width="237" height="71" viewBox="0 0 237 71" fill="none" xmlns="http://www.w3.org/2000/svg">
<path d="M60.9748 56V17.136H66.2388V56H60.9748ZM81.4043 56V18.256H86.4443V56H81.4043ZM74.8523 33.992V29.4H92.9963V33.992H74.8523ZM100.789 56V29.4H105.829V56H100.789ZM103.309 24.08C102.376 24.08 101.611 23.7813 101.013 23.184C100.416 22.5493 100.117 21.7653 100.117 20.832C100.117 19.936 100.416 19.1893 101.013 18.592C101.611 17.9573 102.376 17.64 103.309 17.64C104.243 17.64 105.008 17.9573 105.605 18.592C106.203 19.1893 106.501 19.936 106.501 20.832C106.501 21.7653 106.203 22.5493 105.605 23.184C105.008 23.7813 104.243 24.08 103.309 24.08ZM134.873 56V40.488C134.873 38.472 134.238 36.8107 132.969 35.504C131.7 34.1973 130.057 33.544 128.041 33.544C126.697 33.544 125.502 33.8427 124.457 34.44C123.412 35.0373 122.59 35.8587 121.993 36.904C121.396 37.9493 121.097 39.144 121.097 40.488L119.025 39.312C119.025 37.296 119.473 35.504 120.369 33.936C121.265 32.368 122.516 31.136 124.121 30.24C125.726 29.3067 127.537 28.84 129.553 28.84C131.569 28.84 133.342 29.344 134.873 30.352C136.441 31.36 137.673 32.6853 138.569 34.328C139.465 35.9333 139.913 37.6507 139.913 39.48V56H134.873ZM116.057 56V29.4H121.097V56H116.057ZM161.857 56.56C159.206 56.56 156.817 55.9627 154.689 54.768C152.561 53.536 150.881 51.8747 149.649 49.784C148.417 47.6933 147.801 45.3227 147.801 42.672C147.801 40.0587 148.398 37.7067 149.593 35.616C150.825 33.5253 152.467 31.8827 154.521 30.688C156.611 29.456 158.945 28.84 161.521 28.84C163.985 28.84 166.15 29.4 168.017 30.52C169.921 31.64 171.395 33.1893 172.441 35.168C173.523 37.1467 174.065 39.3867 174.065 41.888C174.065 42.2613 174.046 42.672 174.009 43.12C173.971 43.5307 173.897 44.016 173.785 44.576H151.329V40.376H171.097L169.249 42C169.249 40.208 168.931 38.696 168.297 37.464C167.662 36.1947 166.766 35.224 165.609 34.552C164.451 33.8427 163.051 33.488 161.409 33.488C159.691 33.488 158.179 33.8613 156.873 34.608C155.566 35.3547 154.558 36.4 153.849 37.744C153.139 39.088 152.785 40.6747 152.785 42.504C152.785 44.3707 153.158 46.0133 153.905 47.432C154.651 48.8133 155.715 49.896 157.097 50.68C158.478 51.4267 160.065 51.8 161.857 51.8C163.35 51.8 164.713 51.5387 165.945 51.016C167.214 50.4933 168.297 49.7093 169.193 48.664L172.441 51.968C171.171 53.4613 169.603 54.6 167.737 55.384C165.907 56.168 163.947 56.56 161.857 56.56ZM182.36 56V29.4H187.4V56H182.36ZM187.4 40.824L185.496 39.984C185.496 36.5867 186.28 33.88 187.848 31.864C189.416 29.848 191.675 28.84 194.624 28.84C195.968 28.84 197.181 29.0827 198.264 29.568C199.347 30.016 200.355 30.7813 201.288 31.864L197.984 35.28C197.424 34.6827 196.808 34.2533 196.136 33.992C195.464 33.7307 194.68 33.6 193.784 33.6C191.917 33.6 190.387 34.1973 189.192 35.392C187.997 36.5867 187.4 38.3973 187.4 40.824ZM218.074 56.56C215.647 56.56 213.444 55.9627 211.466 54.768C209.487 53.536 207.919 51.8747 206.762 49.784C205.642 47.6933 205.082 45.3413 205.082 42.728C205.082 40.1147 205.642 37.7627 206.762 35.672C207.919 33.5813 209.468 31.92 211.41 30.688C213.388 29.456 215.61 28.84 218.074 28.84C220.09 28.84 221.882 29.2693 223.45 30.128C225.055 30.9493 226.343 32.1067 227.314 33.6C228.284 35.056 228.826 36.7547 228.938 38.696V46.704C228.826 48.608 228.284 50.3067 227.314 51.8C226.38 53.2933 225.111 54.4693 223.506 55.328C221.938 56.1493 220.127 56.56 218.074 56.56ZM218.914 51.8C221.415 51.8 223.431 50.96 224.962 49.28C226.492 47.5627 227.258 45.3787 227.258 42.728C227.258 40.8987 226.903 39.312 226.194 37.968C225.522 36.5867 224.551 35.5227 223.282 34.776C222.012 33.992 220.538 33.6 218.858 33.6C217.178 33.6 215.684 33.992 214.378 34.776C213.108 35.56 212.1 36.6427 211.354 38.024C210.644 39.368 210.29 40.9173 210.29 42.672C210.29 44.464 210.644 46.0507 211.354 47.432C212.1 48.776 213.127 49.84 214.434 50.624C215.74 51.408 217.234 51.8 218.914 51.8ZM226.922 56V48.832L227.874 42.336L226.922 35.896V29.4H232.018V56H226.922Z" fill="#FF5633"/>
<circle cx="19.7969" cy="36.4141" r="19.7969" fill="#FF5633"/>
<path d="M34.35 49.3918L21.3263 43.3405C18.2698 41.9203 16.6592 38.5238 17.494 35.2585L18.1053 32.867C18.9495 29.5647 17.2925 26.1344 14.1809 24.7431L6.30058 21.2193" stroke="white" stroke-width="3" stroke-linecap="round"/>
<mask id="mask0_807_47" style="mask-type:alpha" maskUnits="userSpaceOnUse" x="23" y="32" width="13" height="13">
<rect x="23.0938" y="32.2871" width="12.373" height="12.373" fill="#D9D9D9"/>
</mask>
<g mask="url(#mask0_807_47)">
<path d="M29.6704 38.5324C29.9566 38.5324 30.2016 38.4314 30.4054 38.2295C30.6092 38.0276 30.7111 37.7849 30.7111 37.5013C30.7111 37.2178 30.6092 36.975 30.4054 36.7731C30.2016 36.5712 29.9566 36.4702 29.6704 36.4702C29.3843 36.4702 29.1393 36.5712 28.9355 36.7731C28.7317 36.975 28.6298 37.2178 28.6298 37.5013C28.6298 37.7849 28.7317 38.0276 28.9355 38.2295C29.1393 38.4314 29.3843 38.5324 29.6704 38.5324ZM29.6704 43.6878C28.2742 42.5107 27.2314 41.4173 26.542 40.4077C25.8525 39.3981 25.5078 38.4637 25.5078 37.6044C25.5078 36.3156 25.9262 35.2888 26.7631 34.524C27.6 33.7593 28.5691 33.377 29.6704 33.377C30.7718 33.377 31.7409 33.7593 32.5778 34.524C33.4146 35.2888 33.8331 36.3156 33.8331 37.6044C33.8331 38.4637 33.4883 39.3981 32.7989 40.4077C32.1095 41.4173 31.0666 42.5107 29.6704 43.6878Z" fill="white"/>
</g>
</svg>
