<svg width="19" height="20" viewBox="0 0 19 20" fill="none" xmlns="http://www.w3.org/2000/svg">
<path d="M18.294 18.1463L12.1973 8.57144L18.1661 2.00593C18.3755 1.76984 18.4835 1.46072 18.4665 1.14557C18.4496 0.830429 18.3091 0.534668 18.0755 0.322412C17.8419 0.110156 17.5341 -0.00148711 17.2188 0.0116874C16.9035 0.0248618 16.6061 0.161792 16.391 0.392791L10.867 6.47355L7.09997 0.555704C6.99171 0.385491 6.84227 0.245333 6.66547 0.148199C6.48867 0.0510648 6.29023 9.30097e-05 6.08851 0H1.29106C1.07622 9.90314e-05 0.865341 0.0579079 0.680479 0.167384C0.495616 0.27686 0.343554 0.433983 0.240188 0.62233C0.136822 0.810677 0.0859467 1.02333 0.0928803 1.23807C0.0998138 1.4528 0.164301 1.66173 0.279603 1.84302L6.37636 11.4179L0.403536 17.9834C0.295394 18.0996 0.211384 18.2361 0.156375 18.3849C0.101365 18.5338 0.0764514 18.6921 0.0830767 18.8507C0.0897021 19.0093 0.127735 19.165 0.194971 19.3087C0.262207 19.4525 0.357309 19.5815 0.474764 19.6882C0.59222 19.795 0.729694 19.8773 0.879217 19.9306C1.02874 19.9838 1.18734 20.0068 1.34582 19.9983C1.50431 19.9897 1.65952 19.9498 1.80247 19.8809C1.94542 19.8119 2.07327 19.7153 2.17859 19.5966L7.70665 13.5158L11.4736 19.4337C11.5819 19.6039 11.7313 19.744 11.9081 19.8412C12.0849 19.9383 12.2834 19.9893 12.4851 19.9894H17.2825C17.4974 19.9893 17.7083 19.9314 17.8931 19.822C18.078 19.7125 18.2301 19.5554 18.3334 19.367C18.4368 19.1787 18.4877 18.966 18.4807 18.7513C18.4738 18.5366 18.4093 18.3276 18.294 18.1463ZM13.1438 17.5906L3.4759 2.39872H5.42986L15.0977 17.5906H13.1438Z" fill="#FF5633"/>
</svg>
